<svg xmlns="http://www.w3.org/2000/svg" width="192" height="192" viewBox="0 0 100 100">
  <!-- white background with rounded corners -->
  <rect x="0" y="0" width="100" height="100" fill="#ffffff" rx="14" ry="14" />
  <g fill="none" stroke="#546e7a" stroke-width="1.2" stroke-linecap="butt">
    <line x1="25" y1="45" x2="75" y2="45" />
    <line x1="25" y1="49" x2="75" y2="49" />
    <line x1="25" y1="53" x2="75" y2="53" />
    <line x1="25" y1="57" x2="75" y2="57" />
    <line x1="25" y1="62" x2="75" y2="62" />
    <line x1="25" y1="66" x2="75" y2="66" />
    <line x1="25" y1="70" x2="75" y2="70" />
  </g>
  <g fill="#f19e38">
    <circle cx="31" cy="50" r="4" />
    <circle cx="41" cy="48" r="4" />
    <circle cx="51" cy="46" r="4" />
    <circle cx="61" cy="44" r="4" />
    <circle cx="71" cy="42" r="4" />
  </g>
  <g fill="#984039">
    <rect x="27.5" y="63" width="5.5" height="5.5" />
    <rect x="47.5" y="62.5" width="5.5" height="5.5" />
    <rect x="57.5" y="61.5" width="5.5" height="5.5" />
    <rect x="66.5" y="61" width="5.5" height="5.5" />
  </g>
  <path fill="#f19e38" d="M25.5 44.5 L69 35.5 L67 31 L76 37.5 L67 44 L69 39.5 Z" />
</svg>